<svg xmlns="http://www.w3.org/2000/svg" width="504.26611328125" height="477.12542724609375" viewBox="-145.53155517578125 -125.52753448486328 504.26611328125 477.12542724609375"><title>Neo4j Graph Visualization</title><desc>Created using Neo4j (http://www.neo4j.com/)</desc><g class="layer relationships"><g class="relationship" transform="translate(91.71741773558843 112.52674109625968) rotate(326.6034230523737)"><path class="outline" fill="#A5ABB6" stroke="none" d="M 25 0.5 L 26.921748744128543 0.5 L 26.921748744128543 -0.5 L 25 -0.5 Z M 87.59752999412854 0.5 L 89.51927873825709 0.5 L 89.51927873825709 3.5 L 96.51927873825709 0 L 89.51927873825709 -3.5 L 89.51927873825709 -0.5 L 87.59752999412854 -0.5 Z"/><text text-anchor="middle" pointer-events="none" font-size="8px" fill="#000000" x="57.25963936912854" y="3" font-family="sans-serif">FOUNDED_BY</text></g><g class="relationship" transform="translate(215.10549151029474 135.08566432974197) rotate(190.3609010835275)"><path class="outline" fill="#A5ABB6" stroke="none" d="M 25 0.5 L 27.54479297448369 0.5 L 27.54479297448369 -0.5 L 25 -0.5 Z M 90.8885429744837 0.5 L 93.43333594896738 0.5 L 93.43333594896738 3.5 L 100.43333594896738 0 L 93.43333594896738 -3.5 L 93.43333594896738 -0.5 L 90.8885429744837 -0.5 Z"/><text text-anchor="middle" pointer-events="none" font-size="8px" fill="#000000" x="59.21666797448369" y="3" transform="rotate(180 59.21666797448369 0)" font-family="sans-serif">COMPETES_…</text></g><g class="relationship" transform="translate(140.79405499046544 220.9750078818373) rotate(422.9183442203384)"><path class="outline" fill="#A5ABB6" stroke="none" d="M 25 0.5 L 26.79117880542301 0.5 L 26.79117880542301 -0.5 L 25 -0.5 Z M 80.34586630542302 0.5 L 82.13704511084602 0.5 L 82.13704511084602 3.5 L 89.13704511084602 0 L 82.13704511084602 -3.5 L 82.13704511084602 -0.5 L 80.34586630542302 -0.5 Z"/><text text-anchor="middle" pointer-events="none" font-size="8px" fill="#000000" x="53.56852255542301" y="3" font-family="sans-serif">FOUNDED…</text></g><g class="relationship" transform="translate(140.79405499046544 220.9750078818373) rotate(245.6515832671281)"><path class="outline" fill="#A5ABB6" stroke="none" d="M 25 0.5 L 26.570678923351558 0.5 L 26.570678923351558 -0.5 L 25 -0.5 Z M 85.46521017335155 0.5 L 87.03588909670312 0.5 L 87.03588909670312 3.5 L 94.03588909670312 0 L 87.03588909670312 -3.5 L 87.03588909670312 -0.5 L 85.46521017335155 -0.5 Z"/><text text-anchor="middle" pointer-events="none" font-size="8px" fill="#000000" x="56.01794454835156" y="3" transform="rotate(180 56.01794454835156 0)" font-family="sans-serif">COMPETES…</text></g><g class="relationship" transform="translate(-1.5815067601445771 186.3186536315092) rotate(459.2139225115521)"><path class="outline" fill="#A5ABB6" stroke="none" d="M 25 0.5 L 26.990349531755612 0.5 L 26.990349531755612 -0.5 L 25 -0.5 Z M 80.54503703175561 0.5 L 82.53538656351122 0.5 L 82.53538656351122 3.5 L 89.53538656351122 0 L 82.53538656351122 -3.5 L 82.53538656351122 -0.5 L 80.54503703175561 -0.5 Z"/><text text-anchor="middle" pointer-events="none" font-size="8px" fill="#000000" x="53.76769328175561" y="3" transform="rotate(180 53.76769328175561 0)" font-family="sans-serif">FOUNDED…</text></g><g class="relationship" transform="translate(-1.5815067601445771 186.3186536315092) rotate(537.6950271945238)"><path class="outline" fill="#A5ABB6" stroke="none" d="M 24.018736134675446,-6.953439040707552 L 24.277555179777966,-5.987513214418485 A 121.74482331041735 121.74482331041735 0 0 1 25.417530653693852,-6.28706176995145 L 25.16807525497003,-7.255448058602596 A 122.74482331041735 122.74482331041735 0 0 0 24.018736134675446,-6.953439040707552 Z M 82.8580289607363,-8.113533875094802 L 82.63748528210701,-7.138156775806195 A 121.74482331041735 121.74482331041735 0 0 1 83.78586551019521,-6.872645438971538 L 83.09593642769981,-3.953056793095707 L 90.7132271976547,-5.749409020794931 L 84.70577095352239,-10.765430300139313 L 84.01584187102699,-7.845841654263482 A 122.74482331041735 122.74482331041735 0 0 0 82.8580289607363,-8.113533875094802"/><text text-anchor="middle" pointer-events="none" font-size="8px" fill="#000000" x="53.969354158828715" y="-7.622347073785463" transform="rotate(180 53.969354158828715 -10.622347073785463)" font-family="sans-serif">FOUNDED_…</text></g><g class="relationship" transform="translate(-1.5815067601445771 186.3186536315092) rotate(321.658850265207)"><path class="outline" fill="#A5ABB6" stroke="none" d="M 25 0.5 L 25.638860437222625 0.5 L 25.638860437222625 -0.5 L 25 -0.5 Z M 86.31464168722263 0.5 L 86.95350212444525 0.5 L 86.95350212444525 3.5 L 93.95350212444525 0 L 86.95350212444525 -3.5 L 86.95350212444525 -0.5 L 86.31464168722263 -0.5 Z"/><text text-anchor="middle" pointer-events="none" font-size="8px" fill="#000000" x="55.976751062222625" y="3" font-family="sans-serif">ACQUIRED_…</text></g><g class="relationship" transform="translate(10.929153415323714 21.65682287265271) rotate(271.39587718955886)"><path class="outline" fill="#A5ABB6" stroke="none" d="M 25 0.5 L 25.271827874433363 0.5 L 25.271827874433363 -0.5 L 25 -0.5 Z M 85.94760912443337 0.5 L 86.21943699886673 0.5 L 86.21943699886673 3.5 L 93.21943699886673 0 L 86.21943699886673 -3.5 L 86.21943699886673 -0.5 L 85.94760912443337 -0.5 Z"/><text text-anchor="middle" pointer-events="none" font-size="8px" fill="#000000" x="55.60971849943336" y="3" font-family="sans-serif">FOUNDED_BY</text></g><g class="relationship" transform="translate(10.929153415323714 21.65682287265271) rotate(208.43525254831053)"><path class="outline" fill="#A5ABB6" stroke="none" d="M 25 0.5 L 25.97583259007488 0.5 L 25.97583259007488 -0.5 L 25 -0.5 Z M 79.53052009007487 0.5 L 80.50635268014976 0.5 L 80.50635268014976 3.5 L 87.50635268014976 0 L 80.50635268014976 -3.5 L 80.50635268014976 -0.5 L 79.53052009007487 -0.5 Z"/><text text-anchor="middle" pointer-events="none" font-size="8px" fill="#000000" x="52.75317634007488" y="3" transform="rotate(180 52.75317634007488 0)" font-family="sans-serif">FOUNDED…</text></g><g class="relationship" transform="translate(10.929153415323714 21.65682287265271) rotate(408.3611764346317)"><path class="outline" fill="#A5ABB6" stroke="none" d="M 25 0.5 L 25.621084675837977 0.5 L 25.621084675837977 -0.5 L 25 -0.5 Z M 88.96874092583798 0.5 L 89.58982560167595 0.5 L 89.58982560167595 3.5 L 96.58982560167595 0 L 89.58982560167595 -3.5 L 89.58982560167595 -0.5 L 88.96874092583798 -0.5 Z"/><text text-anchor="middle" pointer-events="none" font-size="8px" fill="#000000" x="57.29491280083798" y="3" font-family="sans-serif">ACQUIRED_BY</text></g><g class="relationship" transform="translate(329.73455293887645 111.08204436637764) rotate(528.1730092859915)"><path class="outline" fill="#A5ABB6" stroke="none" d="M 25 0.5 L 35.610388646971955 0.5 L 35.610388646971955 -0.5 L 25 -0.5 Z M 74.50491989697196 0.5 L 85.11530854394391 0.5 L 85.11530854394391 3.5 L 92.11530854394391 0 L 85.11530854394391 -3.5 L 85.11530854394391 -0.5 L 74.50491989697196 -0.5 Z"/><text text-anchor="middle" pointer-events="none" font-size="8px" fill="#000000" x="55.057654271971955" y="3" transform="rotate(180 55.057654271971955 0)" font-family="sans-serif">CEO_OF</text></g><g class="relationship" transform="translate(125.5540479423167 -4.088947322183063) rotate(466.1803529089917)"><path class="outline" fill="#A5ABB6" stroke="none" d="M 25 0.5 L 37.765452007004825 0.5 L 37.765452007004825 -0.5 L 25 -0.5 Z M 76.65998325700482 0.5 L 89.42543526400965 0.5 L 89.42543526400965 3.5 L 96.42543526400965 0 L 89.42543526400965 -3.5 L 89.42543526400965 -0.5 L 76.65998325700482 -0.5 Z"/><text text-anchor="middle" pointer-events="none" font-size="8px" fill="#000000" x="57.212717632004825" y="3" transform="rotate(180 57.212717632004825 0)" font-family="sans-serif">CEO_OF</text></g><g class="relationship" transform="translate(-116.53155888941546 190.94551750314207) rotate(357.69502719452385)"><path class="outline" fill="#A5ABB6" stroke="none" d="M 24.018736134675446,-6.953439040707552 L 24.277555179777966,-5.987513214418485 A 121.74482331041735 121.74482331041735 0 0 1 34.71565305559721,-8.2984336201921 L 34.54257151942519,-9.283341119318962 A 122.74482331041735 122.74482331041735 0 0 0 24.018736134675446,-6.953439040707552 Z M 73.42736697916371,-9.861717237132808 L 73.28365474423386,-8.87209771755397 A 121.74482331041735 121.74482331041735 0 0 1 83.78586551019521,-6.872645438971538 L 83.09593642769981,-3.953056793095707 L 90.7132271976547,-5.749409020794931 L 84.70577095352239,-10.765430300139313 L 84.01584187102699,-7.845841654263482 A 122.74482331041735 122.74482331041735 0 0 0 73.42736697916371,-9.861717237132808"/><text text-anchor="middle" pointer-events="none" font-size="8px" fill="#000000" x="53.969354158828715" y="-7.622347073785463" font-family="sans-serif">CEO_OF</text></g></g><g class="layer nodes"><g class="node" transform="translate(192.75607097747908,322.5979086532709)"><circle class="outline" cx="0" cy="0" r="25" fill="#F16667" stroke="#eb2728" stroke-width="2px"/><text text-anchor="middle" pointer-events="none" font-family="sans-serif" dy="1.5625" font-size="25" fill="#FFFFFF"/><text text-anchor="middle" pointer-events="none" font-family="sans-serif" dy="1.5625" font-size="25" fill="#FFFFFF"/><text text-anchor="middle" pointer-events="none" y="0" font-size="10px" fill="#FFFFFF" font-family="sans-serif"> Eduardo</text><text text-anchor="middle" pointer-events="none" y="10" font-size="10px" fill="#FFFFFF" font-family="sans-serif"> Saverin</text></g><g class="node" transform="translate(140.79405499046544,220.9750078818373)"><circle class="outline" cx="0" cy="0" r="25" fill="#8DCC93" stroke="#5db665" stroke-width="2px"/><text text-anchor="middle" pointer-events="none" font-family="sans-serif" dy="1.5625" font-size="25" fill="#604A0E"/><text text-anchor="middle" pointer-events="none" y="5" font-size="10px" fill="#604A0E" font-family="sans-serif"> Facebook</text></g><g class="node" transform="translate(329.73455293887645,111.08204436637764)"><circle class="outline" cx="0" cy="0" r="25" fill="#F16667" stroke="#eb2728" stroke-width="2px"/><text text-anchor="middle" pointer-events="none" font-family="sans-serif" dy="1.5625" font-size="25" fill="#FFFFFF"/><text text-anchor="middle" pointer-events="none" font-family="sans-serif" dy="1.5625" font-size="25" fill="#FFFFFF"/><text text-anchor="middle" pointer-events="none" y="0" font-size="10px" fill="#FFFFFF" font-family="sans-serif"> Satya</text><text text-anchor="middle" pointer-events="none" y="10" font-size="10px" fill="#FFFFFF" font-family="sans-serif"> Nadella</text></g><g class="node" transform="translate(215.10549151029474,135.08566432974197)"><circle class="outline" cx="0" cy="0" r="25" fill="#8DCC93" stroke="#5db665" stroke-width="2px"/><text text-anchor="middle" pointer-events="none" font-family="sans-serif" dy="1.5625" font-size="25" fill="#604A0E"/><text text-anchor="middle" pointer-events="none" y="5" font-size="10px" fill="#604A0E" font-family="sans-serif"> Microsoft</text></g><g class="node" transform="translate(193.17152423981128,45.638779709355184)"><circle class="outline" cx="0" cy="0" r="25" fill="#F16667" stroke="#eb2728" stroke-width="2px"/><text text-anchor="middle" pointer-events="none" font-family="sans-serif" dy="1.5625" font-size="25" fill="#FFFFFF"/><text text-anchor="middle" pointer-events="none" font-family="sans-serif" dy="1.5625" font-size="25" fill="#FFFFFF"/><text text-anchor="middle" pointer-events="none" y="0" font-size="10px" fill="#FFFFFF" font-family="sans-serif"> Sergey</text><text text-anchor="middle" pointer-events="none" y="10" font-size="10px" fill="#FFFFFF" font-family="sans-serif"> Brin</text></g><g class="node" transform="translate(91.71741773558843,112.52674109625968)"><circle class="outline" cx="0" cy="0" r="25" fill="#8DCC93" stroke="#5db665" stroke-width="2px"/><text text-anchor="middle" pointer-events="none" font-family="sans-serif" dy="1.5625" font-size="25" fill="#604A0E"/><text text-anchor="middle" pointer-events="none" y="5" font-size="10px" fill="#604A0E" font-family="sans-serif"> Google</text></g><g class="node" transform="translate(125.5540479423167,-4.088947322183063)"><circle class="outline" cx="0" cy="0" r="25" fill="#F16667" stroke="#eb2728" stroke-width="2px"/><text text-anchor="middle" pointer-events="none" font-family="sans-serif" dy="1.5625" font-size="25" fill="#FFFFFF"/><text text-anchor="middle" pointer-events="none" font-family="sans-serif" dy="1.5625" font-size="25" fill="#FFFFFF"/><text text-anchor="middle" pointer-events="none" y="0" font-size="10px" fill="#FFFFFF" font-family="sans-serif"> Sundar</text><text text-anchor="middle" pointer-events="none" y="10" font-size="10px" fill="#FFFFFF" font-family="sans-serif"> Pichai</text></g><g class="node" transform="translate(-88.00395670930344,-31.914803147645003)"><circle class="outline" cx="0" cy="0" r="25" fill="#F16667" stroke="#eb2728" stroke-width="2px"/><text text-anchor="middle" pointer-events="none" font-family="sans-serif" dy="1.5625" font-size="25" fill="#FFFFFF"/><text text-anchor="middle" pointer-events="none" font-family="sans-serif" dy="1.5625" font-size="25" fill="#FFFFFF"/><text text-anchor="middle" pointer-events="none" y="0" font-size="10px" fill="#FFFFFF" font-family="sans-serif"> Steve</text><text text-anchor="middle" pointer-events="none" y="10" font-size="10px" fill="#FFFFFF" font-family="sans-serif"> Chen</text></g><g class="node" transform="translate(10.929153415323714,21.65682287265271)"><circle class="outline" cx="0" cy="0" r="25" fill="#8DCC93" stroke="#5db665" stroke-width="2px"/><text text-anchor="middle" pointer-events="none" font-family="sans-serif" dy="1.5625" font-size="25" fill="#604A0E"/><text text-anchor="middle" pointer-events="none" y="5" font-size="10px" fill="#604A0E" font-family="sans-serif"> YouTube</text></g><g class="node" transform="translate(13.809007622337418,-96.52753194673683)"><circle class="outline" cx="0" cy="0" r="25" fill="#F16667" stroke="#eb2728" stroke-width="2px"/><text text-anchor="middle" pointer-events="none" font-family="sans-serif" dy="1.5625" font-size="25" fill="#FFFFFF"/><text text-anchor="middle" pointer-events="none" font-family="sans-serif" dy="1.5625" font-size="25" fill="#FFFFFF"/><text text-anchor="middle" pointer-events="none" y="0" font-size="10px" fill="#FFFFFF" font-family="sans-serif"> Jawed</text><text text-anchor="middle" pointer-events="none" y="10" font-size="10px" fill="#FFFFFF" font-family="sans-serif"> Karim</text></g><g class="node" transform="translate(-116.53155888941546,190.94551750314207)"><circle class="outline" cx="0" cy="0" r="25" fill="#F16667" stroke="#eb2728" stroke-width="2px"/><text text-anchor="middle" pointer-events="none" font-family="sans-serif" dy="1.5625" font-size="25" fill="#FFFFFF"/><text text-anchor="middle" pointer-events="none" font-family="sans-serif" dy="1.5625" font-size="25" fill="#FFFFFF"/><text text-anchor="middle" pointer-events="none" y="0" font-size="10px" fill="#FFFFFF" font-family="sans-serif"> James</text><text text-anchor="middle" pointer-events="none" y="10" font-size="10px" fill="#FFFFFF" font-family="sans-serif"> Park</text></g><g class="node" transform="translate(-1.5815067601445771,186.3186536315092)"><circle class="outline" cx="0" cy="0" r="25" fill="#8DCC93" stroke="#5db665" stroke-width="2px"/><text text-anchor="middle" pointer-events="none" font-family="sans-serif" dy="1.5625" font-size="25" fill="#604A0E"/><text text-anchor="middle" pointer-events="none" y="5" font-size="10px" fill="#604A0E" font-family="sans-serif"> Fitbit</text></g><g class="node" transform="translate(-19.921033213905275,299.37623429156383)"><circle class="outline" cx="0" cy="0" r="25" fill="#F16667" stroke="#eb2728" stroke-width="2px"/><text text-anchor="middle" pointer-events="none" font-family="sans-serif" dy="1.5625" font-size="25" fill="#FFFFFF"/><text text-anchor="middle" pointer-events="none" font-family="sans-serif" dy="1.5625" font-size="25" fill="#FFFFFF"/><text text-anchor="middle" pointer-events="none" y="0" font-size="10px" fill="#FFFFFF" font-family="sans-serif"> Eric</text><text text-anchor="middle" pointer-events="none" y="10" font-size="10px" fill="#FFFFFF" font-family="sans-serif"> Friedman</text></g></g></svg>