<svg xmlns="http://www.w3.org/2000/svg" width="865.741455078125" height="708.28173828125" viewBox="-268.242919921875 -251.34017944335938 865.741455078125 708.28173828125"><title>Neo4j Graph Visualization</title><desc>Created using Neo4j (http://www.neo4j.com/)</desc><g class="layer relationships"><g class="relationship" transform="translate(16.672453312273817 -68.0762904532098) rotate(442.375842890871)"><path class="outline" fill="#A5ABB6" stroke="none" d="M 25 0.5 L 25.562629389256408 0.5 L 25.562629389256408 -0.5 L 25 -0.5 Z M 72.03528563925641 0.5 L 72.59791502851282 0.5 L 72.59791502851282 3.5 L 79.59791502851282 0 L 72.59791502851282 -3.5 L 72.59791502851282 -0.5 L 72.03528563925641 -0.5 Z"/><text text-anchor="middle" pointer-events="none" font-size="8px" fill="#000000" x="48.79895751425641" y="3" font-family="sans-serif">Headqua…</text></g><g class="relationship" transform="translate(16.672453312273817 -68.0762904532098) rotate(286.5942065059329)"><path class="outline" fill="#A5ABB6" stroke="none" d="M 25 0.5 L 28.831453796390136 0.5 L 28.831453796390136 -0.5 L 25 -0.5 Z M 89.50723504639014 0.5 L 93.33868884278027 0.5 L 93.33868884278027 3.5 L 100.33868884278027 0 L 93.33868884278027 -3.5 L 93.33868884278027 -0.5 L 89.50723504639014 -0.5 Z"/><text text-anchor="middle" pointer-events="none" font-size="8px" fill="#000000" x="59.169344421390136" y="3" font-family="sans-serif">FOUNDED_BY</text></g><g class="relationship" transform="translate(16.672453312273817 -68.0762904532098) rotate(338.22946755823864)"><path class="outline" fill="#A5ABB6" stroke="none" d="M 25 0.5 L 40.915037514061595 0.5 L 40.915037514061595 -0.5 L 25 -0.5 Z M 101.5908187640616 0.5 L 117.50585627812319 0.5 L 117.50585627812319 3.5 L 124.50585627812319 0 L 117.50585627812319 -3.5 L 117.50585627812319 -0.5 L 101.5908187640616 -0.5 Z"/><text text-anchor="middle" pointer-events="none" font-size="8px" fill="#000000" x="71.2529281390616" y="3" font-family="sans-serif">FOUNDED_BY</text></g><g class="relationship" transform="translate(16.672453312273817 -68.0762904532098) rotate(526.1947914163954)"><path class="outline" fill="#A5ABB6" stroke="none" d="M 25 0.5 L 97.92611426746257 0.5 L 97.92611426746257 -0.5 L 25 -0.5 Z M 158.60189551746257 0.5 L 231.52800978492513 0.5 L 231.52800978492513 3.5 L 238.52800978492513 0 L 231.52800978492513 -3.5 L 231.52800978492513 -0.5 L 158.60189551746257 -0.5 Z"/><text text-anchor="middle" pointer-events="none" font-size="8px" fill="#000000" x="128.26400489246257" y="3" transform="rotate(180 128.26400489246257 0)" font-family="sans-serif">FOUNDED_BY</text></g><g class="relationship" transform="translate(16.672453312273817 -68.0762904532098) rotate(392.5458950245869)"><path class="outline" fill="#A5ABB6" stroke="none" d="M 25 0.5 L 70.28414744989516 0.5 L 70.28414744989516 -0.5 L 25 -0.5 Z M 146.06539744989516 0.5 L 191.34954489979032 0.5 L 191.34954489979032 3.5 L 198.34954489979032 0 L 191.34954489979032 -3.5 L 191.34954489979032 -0.5 L 146.06539744989516 -0.5 Z"/><text text-anchor="middle" pointer-events="none" font-size="8px" fill="#000000" x="108.17477244989516" y="3" font-family="sans-serif">COMPETES_WITH</text></g><g class="relationship" transform="translate(204.9473616659389 52.08018291115989) rotate(310.42605867160444)"><path class="outline" fill="#A5ABB6" stroke="none" d="M 25 0.5 L 26.63856130585055 0.5 L 26.63856130585055 -0.5 L 25 -0.5 Z M 87.31434255585054 0.5 L 88.9529038617011 0.5 L 88.9529038617011 3.5 L 95.9529038617011 0 L 88.9529038617011 -3.5 L 88.9529038617011 -0.5 L 87.31434255585054 -0.5 Z"/><text text-anchor="middle" pointer-events="none" font-size="8px" fill="#000000" x="56.97645193085055" y="3" font-family="sans-serif">FOUNDED_BY</text></g><g class="relationship" transform="translate(204.9473616659389 52.08018291115989) rotate(185.39929119871562)"><path class="outline" fill="#A5ABB6" stroke="none" d="M 25 0.5 L 53.51312181872153 0.5 L 53.51312181872153 -0.5 L 25 -0.5 Z M 114.66155931872153 0.5 L 143.17468113744306 0.5 L 143.17468113744306 3.5 L 150.17468113744306 0 L 143.17468113744306 -3.5 L 143.17468113744306 -0.5 L 114.66155931872153 -0.5 Z"/><text text-anchor="middle" pointer-events="none" font-size="8px" fill="#000000" x="84.08734056872153" y="3" transform="rotate(180 84.08734056872153 0)" font-family="sans-serif">Headquarter_in</text></g><g class="relationship" transform="translate(371.8753259099419 124.43112066608353) rotate(203.43316787253912)"><path class="outline" fill="#A5ABB6" stroke="none" d="M 25 0.5 L 49.5758570698591 0.5 L 49.5758570698591 -0.5 L 25 -0.5 Z M 125.3571070698591 0.5 L 149.9329641397182 0.5 L 149.9329641397182 3.5 L 156.9329641397182 0 L 149.9329641397182 -3.5 L 149.9329641397182 -0.5 L 125.3571070698591 -0.5 Z"/><text text-anchor="middle" pointer-events="none" font-size="8px" fill="#000000" x="87.4664820698591" y="3" transform="rotate(180 87.4664820698591 0)" font-family="sans-serif">COMPETES_WITH</text></g><g class="relationship" transform="translate(371.8753259099419 124.43112066608353) rotate(370.80987581191994)"><path class="outline" fill="#A5ABB6" stroke="none" d="M 25 0.5 L 66.24978146952301 0.5 L 66.24978146952301 -0.5 L 25 -0.5 Z M 126.92556271952301 0.5 L 168.17534418904603 0.5 L 168.17534418904603 3.5 L 175.17534418904603 0 L 168.17534418904603 -3.5 L 168.17534418904603 -0.5 L 126.92556271952301 -0.5 Z"/><text text-anchor="middle" pointer-events="none" font-size="8px" fill="#000000" x="96.58767209452301" y="3" font-family="sans-serif">FOUNDED_BY</text></g><g class="relationship" transform="translate(371.8753259099419 124.43112066608353) rotate(306.71348285615625)"><path class="outline" fill="#A5ABB6" stroke="none" d="M 25 0.5 L 27.027376859779196 0.5 L 27.027376859779196 -0.5 L 25 -0.5 Z M 74.8047206097792 0.5 L 76.83209746955839 0.5 L 76.83209746955839 3.5 L 83.83209746955839 0 L 76.83209746955839 -3.5 L 76.83209746955839 -0.5 L 74.8047206097792 -0.5 Z"/><text text-anchor="middle" pointer-events="none" font-size="8px" fill="#000000" x="50.916048734779196" y="3" font-family="sans-serif">FOUNDE…</text></g><g class="relationship" transform="translate(371.8753259099419 124.43112066608353) rotate(441.38298805892464)"><path class="outline" fill="#A5ABB6" stroke="none" d="M 25 0.5 L 36.073041184672206 0.5 L 36.073041184672206 -0.5 L 25 -0.5 Z M 97.2214786846722 0.5 L 108.29451986934441 0.5 L 108.29451986934441 3.5 L 115.29451986934441 0 L 108.29451986934441 -3.5 L 108.29451986934441 -0.5 L 97.2214786846722 -0.5 Z"/><text text-anchor="middle" pointer-events="none" font-size="8px" fill="#000000" x="66.6472599346722" y="3" font-family="sans-serif">Headquarter_in</text></g><g class="relationship" transform="translate(169.20847158821988 171.90068644365377) rotate(224.50932124483546)"><path class="outline" fill="#A5ABB6" stroke="none" d="M 25 0.5 L 63.14320091386725 0.5 L 63.14320091386725 -0.5 L 25 -0.5 Z M 124.29163841386725 0.5 L 162.4348393277345 0.5 L 162.4348393277345 3.5 L 169.4348393277345 0 L 162.4348393277345 -3.5 L 162.4348393277345 -0.5 L 124.29163841386725 -0.5 Z"/><text text-anchor="middle" pointer-events="none" font-size="8px" fill="#000000" x="93.71741966386725" y="3" transform="rotate(180 93.71741966386725 0)" font-family="sans-serif">Headquarter_in</text></g><g class="relationship" transform="translate(169.20847158821988 171.90068644365377) rotate(401.8181957450008)"><path class="outline" fill="#A5ABB6" stroke="none" d="M 25 0.5 L 26.477812181773757 0.5 L 26.477812181773757 -0.5 L 25 -0.5 Z M 87.15359343177376 0.5 L 88.63140561354751 0.5 L 88.63140561354751 3.5 L 95.63140561354751 0 L 88.63140561354751 -3.5 L 88.63140561354751 -0.5 L 87.15359343177376 -0.5 Z"/><text text-anchor="middle" pointer-events="none" font-size="8px" fill="#000000" x="56.81570280677376" y="3" font-family="sans-serif">FOUNDED_BY</text></g><g class="relationship" transform="translate(169.20847158821988 171.90068644365377) rotate(450.3401851041644)"><path class="outline" fill="#A5ABB6" stroke="none" d="M 25 0.5 L 30.468974033392072 0.5 L 30.468974033392072 -0.5 L 25 -0.5 Z M 91.14475528339207 0.5 L 96.61372931678414 0.5 L 96.61372931678414 3.5 L 103.61372931678414 0 L 96.61372931678414 -3.5 L 96.61372931678414 -0.5 L 91.14475528339207 -0.5 Z"/><text text-anchor="middle" pointer-events="none" font-size="8px" fill="#000000" x="60.80686465839207" y="3" transform="rotate(180 60.80686465839207 0)" font-family="sans-serif">FOUNDED_BY</text></g><g class="relationship" transform="translate(169.20847158821988 171.90068644365377) rotate(191.84059978268021)"><path class="outline" fill="#A5ABB6" stroke="none" d="M 25 0.5 L 87.10666522471645 0.5 L 87.10666522471645 -0.5 L 25 -0.5 Z M 147.78244647471644 0.5 L 209.8891116994329 0.5 L 209.8891116994329 3.5 L 216.8891116994329 0 L 209.8891116994329 -3.5 L 209.8891116994329 -0.5 L 147.78244647471644 -0.5 Z"/><text text-anchor="middle" pointer-events="none" font-size="8px" fill="#000000" x="117.44455584971645" y="3" transform="rotate(180 117.44455584971645 0)" font-family="sans-serif">FOUNDED_BY</text></g><g class="relationship" transform="translate(169.20847158821988 171.90068644365377) rotate(495.4543000319279)"><path class="outline" fill="#A5ABB6" stroke="none" d="M 24.018736134675446,-6.953439040707552 L 24.277555179777966,-5.987513214418485 A 137.89461034387017 137.89461034387017 0 0 1 28.106939766506358,-6.9550323401430205 L 27.875891093118724,-7.927974532940624 A 138.89461034387017 138.89461034387017 0 0 0 24.018736134675446,-6.953439040707552 Z M 88.27847321012797,-8.77018810402788 L 88.07464120695467,-7.79118222330888 A 137.89461034387017 137.89461034387017 0 0 1 91.92951273719348,-6.930807271866242 L 91.23415112508131,-4.012507727885061 L 98.85477194183494,-5.794680100934719 L 92.85666155334305,-10.821873330507817 L 92.16129994123088,-7.9035737865266364 A 138.89461034387017 138.89461034387017 0 0 0 88.27847321012797,-8.77018810402788"/><text text-anchor="middle" pointer-events="none" font-size="8px" fill="#000000" x="58.0378113869416" y="-8.172706973944315" transform="rotate(180 58.0378113869416 -11.172706973944315)" font-family="sans-serif">FOUNDED_BY</text></g><g class="relationship" transform="translate(169.20847158821988 171.90068644365377) rotate(286.6082761621494)"><path class="outline" fill="#A5ABB6" stroke="none" d="M 25 0.5 L 27.34656494128385 0.5 L 27.34656494128385 -0.5 L 25 -0.5 Z M 90.69031494128384 0.5 L 93.0368798825677 0.5 L 93.0368798825677 3.5 L 100.0368798825677 0 L 93.0368798825677 -3.5 L 93.0368798825677 -0.5 L 90.69031494128384 -0.5 Z"/><text text-anchor="middle" pointer-events="none" font-size="8px" fill="#000000" x="59.01843994128385" y="3" font-family="sans-serif">COMPETES_…</text></g><g class="relationship" transform="translate(-33.35874267136086 211.8872812372814) rotate(289.9265586006995)"><path class="outline" fill="#A5ABB6" stroke="none" d="M 25 0.5 L 59.68424450287387 0.5 L 59.68424450287387 -0.5 L 25 -0.5 Z M 120.83268200287387 0.5 L 155.51692650574773 0.5 L 155.51692650574773 3.5 L 162.51692650574773 0 L 155.51692650574773 -3.5 L 155.51692650574773 -0.5 L 120.83268200287387 -0.5 Z"/><text text-anchor="middle" pointer-events="none" font-size="8px" fill="#000000" x="90.25846325287387" y="3" font-family="sans-serif">Headquarter_in</text></g><g class="relationship" transform="translate(-33.35874267136086 211.8872812372814) rotate(505.59277385652325)"><path class="outline" fill="#A5ABB6" stroke="none" d="M 25 0.5 L 28.215621592250187 0.5 L 28.215621592250187 -0.5 L 25 -0.5 Z M 88.89140284225019 0.5 L 92.10702443450037 0.5 L 92.10702443450037 3.5 L 99.10702443450037 0 L 92.10702443450037 -3.5 L 92.10702443450037 -0.5 L 88.89140284225019 -0.5 Z"/><text text-anchor="middle" pointer-events="none" font-size="8px" fill="#000000" x="58.55351221725019" y="3" transform="rotate(180 58.55351221725019 0)" font-family="sans-serif">FOUNDED_BY</text></g><g class="relationship" transform="translate(-33.35874267136086 211.8872812372814) rotate(326.1543565086101)"><path class="outline" fill="#A5ABB6" stroke="none" d="M 25 0.5 L 108.29054727864738 0.5 L 108.29054727864738 -0.5 L 25 -0.5 Z M 171.63820352864738 0.5 L 254.92875080729476 0.5 L 254.92875080729476 3.5 L 261.92875080729476 0 L 254.92875080729476 -3.5 L 254.92875080729476 -0.5 L 171.63820352864738 -0.5 Z"/><text text-anchor="middle" pointer-events="none" font-size="8px" fill="#000000" x="139.96437540364738" y="3" font-family="sans-serif">ACQUIRED_BY</text></g><g class="relationship" transform="translate(81.42349628856446 258.3044845535127) rotate(478.1701149042945)"><path class="outline" fill="#A5ABB6" stroke="none" d="M 25 0.5 L 40.97068022918801 0.5 L 40.97068022918801 -0.5 L 25 -0.5 Z M 79.43161772918802 0.5 L 95.40229795837602 0.5 L 95.40229795837602 3.5 L 102.40229795837602 0 L 95.40229795837602 -3.5 L 95.40229795837602 -0.5 L 79.43161772918802 -0.5 Z"/><text text-anchor="middle" pointer-events="none" font-size="8px" fill="#000000" x="60.20114897918801" y="3" transform="rotate(180 60.20114897918801 0)" font-family="sans-serif">USAborn</text></g><g class="relationship" transform="translate(81.42349628856446 258.3044845535127) rotate(315.4543000319279)"><path class="outline" fill="#A5ABB6" stroke="none" d="M 24.018736134675446,-6.953439040707552 L 24.277555179777966,-5.987513214418485 A 137.89461034387017 137.89461034387017 0 0 1 38.75231067922009,-9.044428524480793 L 38.59846133136205,-10.032522840912009 A 138.89461034387017 138.89461034387017 0 0 0 24.018736134675446,-6.953439040707552 Z M 77.50139400827781,-10.574959549861319 L 77.37515377900539,-9.58295985000592 A 137.89461034387017 137.89461034387017 0 0 1 91.92951273719348,-6.930807271866242 L 91.23415112508131,-4.012507727885061 L 98.85477194183494,-5.794680100934719 L 92.85666155334305,-10.821873330507817 L 92.16129994123088,-7.9035737865266364 A 138.89461034387017 138.89461034387017 0 0 0 77.50139400827781,-10.574959549861319"/><text text-anchor="middle" pointer-events="none" font-size="8px" fill="#000000" x="58.0378113869416" y="-8.172706973944315" font-family="sans-serif">CEO_OF</text></g><g class="relationship" transform="translate(-67.53378095500676 122.26755013836053) rotate(318.53492042054086)"><path class="outline" fill="#A5ABB6" stroke="none" d="M 25 0.5 L 42.71455315047028 0.5 L 42.71455315047028 -0.5 L 25 -0.5 Z M 81.17549065047028 0.5 L 98.89004380094056 0.5 L 98.89004380094056 3.5 L 105.89004380094056 0 L 98.89004380094056 -3.5 L 98.89004380094056 -0.5 L 81.17549065047028 -0.5 Z"/><text text-anchor="middle" pointer-events="none" font-size="8px" fill="#000000" x="61.94502190047028" y="3" font-family="sans-serif">USAborn</text></g><g class="relationship" transform="translate(168.44485133179649 300.5121488133625) rotate(452.972856875021)"><path class="outline" fill="#A5ABB6" stroke="none" d="M 25 0.5 L 41.070109272307036 0.5 L 41.070109272307036 -0.5 L 25 -0.5 Z M 79.53104677230704 0.5 L 95.60115604461407 0.5 L 95.60115604461407 3.5 L 102.60115604461407 0 L 95.60115604461407 -3.5 L 95.60115604461407 -0.5 L 79.53104677230704 -0.5 Z"/><text text-anchor="middle" pointer-events="none" font-size="8px" fill="#000000" x="60.300578022307036" y="3" transform="rotate(180 60.300578022307036 0)" font-family="sans-serif">USAborn</text></g><g class="relationship" transform="translate(259.11075015558544 252.33399004791974) rotate(424.9479083309383)"><path class="outline" fill="#A5ABB6" stroke="none" d="M 25 0.5 L 40.16426348107699 0.5 L 40.16426348107699 -0.5 L 25 -0.5 Z M 78.625200981077 0.5 L 93.78946446215399 0.5 L 93.78946446215399 3.5 L 100.78946446215399 0 L 93.78946446215399 -3.5 L 93.78946446215399 -0.5 L 78.625200981077 -0.5 Z"/><text text-anchor="middle" pointer-events="none" font-size="8px" fill="#000000" x="59.39473223107699" y="3" font-family="sans-serif">USAborn</text></g><g class="relationship" transform="translate(568.4985462205709 161.97413141217177) rotate(510.0530347988607)"><path class="outline" fill="#A5ABB6" stroke="none" d="M 25 0.5 L 78.59988758211908 0.5 L 78.59988758211908 -0.5 L 25 -0.5 Z M 117.06082508211908 0.5 L 170.66071266423816 0.5 L 170.66071266423816 3.5 L 177.66071266423816 0 L 170.66071266423816 -3.5 L 170.66071266423816 -0.5 L 117.06082508211908 -0.5 Z"/><text text-anchor="middle" pointer-events="none" font-size="8px" fill="#000000" x="97.83035633211908" y="3" transform="rotate(180 97.83035633211908 0)" font-family="sans-serif">USAborn</text></g><g class="relationship" transform="translate(436.9366561453479 37.18750343466135) rotate(461.0293307025031)"><path class="outline" fill="#A5ABB6" stroke="none" d="M 25 0.5 L 92.37280239673964 0.5 L 92.37280239673964 -0.5 L 25 -0.5 Z M 130.83373989673964 0.5 L 198.2065422934793 0.5 L 198.2065422934793 3.5 L 205.2065422934793 0 L 198.2065422934793 -3.5 L 198.2065422934793 -0.5 L 130.83373989673964 -0.5 Z"/><text text-anchor="middle" pointer-events="none" font-size="8px" fill="#000000" x="111.60327114673964" y="3" transform="rotate(180 111.60327114673964 0)" font-family="sans-serif">USAborn</text></g><g class="relationship" transform="translate(283.3812302774711 -39.99442383362515) rotate(306.8628947103547)"><path class="outline" fill="#A5ABB6" stroke="none" d="M 25 0.5 L 36.98996683784714 0.5 L 36.98996683784714 -0.5 L 25 -0.5 Z M 75.45090433784713 0.5 L 87.44087117569428 0.5 L 87.44087117569428 3.5 L 94.44087117569428 0 L 87.44087117569428 -3.5 L 87.44087117569428 -0.5 L 75.45090433784713 -0.5 Z"/><text text-anchor="middle" pointer-events="none" font-size="8px" fill="#000000" x="56.22043558784714" y="3" font-family="sans-serif">USAborn</text></g><g class="relationship" transform="translate(-239.2429152164516 -5.192778369276098) rotate(368.5973832626909)"><path class="outline" fill="#A5ABB6" stroke="none" d="M 25 0.5 L 113.69897193426758 0.5 L 113.69897193426758 -0.5 L 25 -0.5 Z M 152.15990943426758 0.5 L 240.85888136853515 0.5 L 240.85888136853515 3.5 L 247.85888136853515 0 L 240.85888136853515 -3.5 L 240.85888136853515 -0.5 L 152.15990943426758 -0.5 Z"/><text text-anchor="middle" pointer-events="none" font-size="8px" fill="#000000" x="132.92944068426758" y="3" font-family="sans-serif">USAborn</text></g><g class="relationship" transform="translate(155.51505866334787 -123.52655646502201) rotate(488.143764089988)"><path class="outline" fill="#A5ABB6" stroke="none" d="M 25 0.5 L 78.43347998516501 0.5 L 78.43347998516501 -0.5 L 25 -0.5 Z M 116.89441748516501 0.5 L 170.32789747033002 0.5 L 170.32789747033002 3.5 L 177.32789747033002 0 L 170.32789747033002 -3.5 L 170.32789747033002 -0.5 L 116.89441748516501 -0.5 Z"/><text text-anchor="middle" pointer-events="none" font-size="8px" fill="#000000" x="97.66394873516501" y="3" transform="rotate(180 97.66394873516501 0)" font-family="sans-serif">USAborn</text></g><g class="relationship" transform="translate(52.468113034144814 -188.1948055368692) rotate(344.5409919162979)"><path class="outline" fill="#A5ABB6" stroke="none" d="M 25 0.5 L 41.320390558536275 0.5 L 41.320390558536275 -0.5 L 25 -0.5 Z M 79.78132805853627 0.5 L 96.10171861707255 0.5 L 96.10171861707255 3.5 L 103.10171861707255 0 L 96.10171861707255 -3.5 L 96.10171861707255 -0.5 L 79.78132805853627 -0.5 Z"/><text text-anchor="middle" pointer-events="none" font-size="8px" fill="#000000" x="60.550859308536275" y="3" font-family="sans-serif">USAborn</text></g><g class="relationship" transform="translate(-78.56015808999611 -141.4542817233147) rotate(224.71286678306177)"><path class="outline" fill="#A5ABB6" stroke="none" d="M 25 0.5 L 34.06416140870148 0.5 L 34.06416140870148 -0.5 L 25 -0.5 Z M 72.52509890870148 0.5 L 81.58926031740296 0.5 L 81.58926031740296 3.5 L 88.58926031740296 0 L 81.58926031740296 -3.5 L 81.58926031740296 -0.5 L 72.52509890870148 -0.5 Z"/><text text-anchor="middle" pointer-events="none" font-size="8px" fill="#000000" x="53.29463015870148" y="3" transform="rotate(180 53.29463015870148 0)" font-family="sans-serif">USAborn</text></g><g class="relationship" transform="translate(-78.56015808999611 -141.4542817233147) rotate(397.6147287894696)"><path class="outline" fill="#A5ABB6" stroke="none" d="M 25 0.5 L 37.16425547813659 0.5 L 37.16425547813659 -0.5 L 25 -0.5 Z M 76.0587867281366 0.5 L 88.22304220627318 0.5 L 88.22304220627318 3.5 L 95.22304220627318 0 L 88.22304220627318 -3.5 L 88.22304220627318 -0.5 L 76.0587867281366 -0.5 Z"/><text text-anchor="middle" pointer-events="none" font-size="8px" fill="#000000" x="56.61152110313659" y="3" font-family="sans-serif">CEO_OF</text></g><g class="relationship" transform="translate(-135.75227987226287 282.01656936623056) rotate(499.76093257885657)"><path class="outline" fill="#A5ABB6" stroke="none" d="M 25 0.5 L 33.71824496868648 0.5 L 33.71824496868648 -0.5 L 25 -0.5 Z M 72.17918246868648 0.5 L 80.89742743737295 0.5 L 80.89742743737295 3.5 L 87.89742743737295 0 L 80.89742743737295 -3.5 L 80.89742743737295 -0.5 L 72.17918246868648 -0.5 Z"/><text text-anchor="middle" pointer-events="none" font-size="8px" fill="#000000" x="52.94871371868648" y="3" transform="rotate(180 52.94871371868648 0)" font-family="sans-serif">USAborn</text></g><g class="relationship" transform="translate(-236.10529376298774 100.75085357472841) rotate(346.26950537318703)"><path class="outline" fill="#A5ABB6" stroke="none" d="M 25 0.5 L 114.51932928546569 0.5 L 114.51932928546569 -0.5 L 25 -0.5 Z M 152.9802667854657 0.5 L 242.49959607093137 0.5 L 242.49959607093137 3.5 L 249.49959607093137 0 L 242.49959607093137 -3.5 L 242.49959607093137 -0.5 L 152.9802667854657 -0.5 Z"/><text text-anchor="middle" pointer-events="none" font-size="8px" fill="#000000" x="133.7497980354657" y="3" font-family="sans-serif">USAborn</text></g><g class="relationship" transform="translate(-236.10529376298774 100.75085357472841) rotate(388.72954718165727)"><path class="outline" fill="#A5ABB6" stroke="none" d="M 25 0.5 L 92.65709148703054 0.5 L 92.65709148703054 -0.5 L 25 -0.5 Z M 131.55162273703053 0.5 L 199.20871422406108 0.5 L 199.20871422406108 3.5 L 206.20871422406108 0 L 199.20871422406108 -3.5 L 199.20871422406108 -0.5 L 131.55162273703053 -0.5 Z"/><text text-anchor="middle" pointer-events="none" font-size="8px" fill="#000000" x="112.10435711203054" y="3" font-family="sans-serif">CEO_OF</text></g></g><g class="layer nodes"><g class="node" transform="translate(81.42349628856446,258.3044845535127)"><circle class="outline" cx="0" cy="0" r="25" fill="#F16667" stroke="#eb2728" stroke-width="2px"/><text text-anchor="middle" pointer-events="none" font-family="sans-serif" dy="1.5625" font-size="25" fill="#FFFFFF"/><text text-anchor="middle" pointer-events="none" font-family="sans-serif" dy="1.5625" font-size="25" fill="#FFFFFF"/><text text-anchor="middle" pointer-events="none" y="0" font-size="10px" fill="#FFFFFF" font-family="sans-serif"> Mark</text><text text-anchor="middle" pointer-events="none" y="10" font-size="10px" fill="#FFFFFF" font-family="sans-serif"> Zucker…</text></g><g class="node" transform="translate(21.27801567114951,370.6159563022837)"><circle class="outline" cx="0" cy="0" r="25" fill="#A5ABB6" stroke="#9AA1AC" stroke-width="2px"/><text text-anchor="middle" pointer-events="none" font-family="sans-serif" dy="1.5625" font-size="25" fill="#FFFFFF"/><text text-anchor="middle" pointer-events="none" y="5" font-size="10px" fill="#FFFFFF" font-family="sans-serif"> New York</text></g><g class="node" transform="translate(169.20847158821988,171.90068644365377)"><circle class="outline" cx="0" cy="0" r="25" fill="#8DCC93" stroke="#5db665" stroke-width="2px"/><text text-anchor="middle" pointer-events="none" font-family="sans-serif" dy="1.5625" font-size="25" fill="#604A0E"/><text text-anchor="middle" pointer-events="none" y="5" font-size="10px" fill="#604A0E" font-family="sans-serif"> Facebook</text></g><g class="node" transform="translate(-67.53378095500676,122.26755013836053)"><circle class="outline" cx="0" cy="0" r="25" fill="#F16667" stroke="#eb2728" stroke-width="2px"/><text text-anchor="middle" pointer-events="none" font-family="sans-serif" dy="1.5625" font-size="25" fill="#FFFFFF"/><text text-anchor="middle" pointer-events="none" font-family="sans-serif" dy="1.5625" font-size="25" fill="#FFFFFF"/><text text-anchor="middle" pointer-events="none" y="0" font-size="10px" fill="#FFFFFF" font-family="sans-serif"> Andrew</text><text text-anchor="middle" pointer-events="none" y="10" font-size="10px" fill="#FFFFFF" font-family="sans-serif"> McColl…</text></g><g class="node" transform="translate(30.54990803794861,35.596946588221655)"><circle class="outline" cx="0" cy="0" r="25" fill="#A5ABB6" stroke="#9AA1AC" stroke-width="2px"/><text text-anchor="middle" pointer-events="none" font-family="sans-serif" dy="1.5625" font-size="25" fill="#FFFFFF"/><text text-anchor="middle" pointer-events="none" y="5" font-size="10px" fill="#FFFFFF" font-family="sans-serif"> California</text></g><g class="node" transform="translate(168.44485133179649,300.5121488133625)"><circle class="outline" cx="0" cy="0" r="25" fill="#F16667" stroke="#eb2728" stroke-width="2px"/><text text-anchor="middle" pointer-events="none" font-family="sans-serif" dy="1.5625" font-size="25" fill="#FFFFFF"/><text text-anchor="middle" pointer-events="none" font-family="sans-serif" dy="1.5625" font-size="25" fill="#FFFFFF"/><text text-anchor="middle" pointer-events="none" y="0" font-size="10px" fill="#FFFFFF" font-family="sans-serif"> Dustin</text><text text-anchor="middle" pointer-events="none" y="10" font-size="10px" fill="#FFFFFF" font-family="sans-serif"> Moskov…</text></g><g class="node" transform="translate(161.82709009196634,427.94158128519985)"><circle class="outline" cx="0" cy="0" r="25" fill="#A5ABB6" stroke="#9AA1AC" stroke-width="2px"/><text text-anchor="middle" pointer-events="none" font-family="sans-serif" dy="1.5625" font-size="25" fill="#FFFFFF"/><text text-anchor="middle" pointer-events="none" y="5" font-size="10px" fill="#FFFFFF" font-family="sans-serif"> Florida</text></g><g class="node" transform="translate(259.11075015558544,252.33399004791974)"><circle class="outline" cx="0" cy="0" r="25" fill="#F16667" stroke="#eb2728" stroke-width="2px"/><text text-anchor="middle" pointer-events="none" font-family="sans-serif" dy="1.5625" font-size="25" fill="#FFFFFF"/><text text-anchor="middle" pointer-events="none" font-family="sans-serif" dy="1.5625" font-size="25" fill="#FFFFFF"/><text text-anchor="middle" pointer-events="none" y="0" font-size="10px" fill="#FFFFFF" font-family="sans-serif"> Chris</text><text text-anchor="middle" pointer-events="none" y="10" font-size="10px" fill="#FFFFFF" font-family="sans-serif"> Hughes</text></g><g class="node" transform="translate(312.37530210659776,366.2895817278957)"><circle class="outline" cx="0" cy="0" r="25" fill="#A5ABB6" stroke="#9AA1AC" stroke-width="2px"/><text text-anchor="middle" pointer-events="none" font-family="sans-serif" dy="1.5625" font-size="25" fill="#FFFFFF"/><text text-anchor="middle" pointer-events="none" font-family="sans-serif" dy="1.5625" font-size="25" fill="#FFFFFF"/><text text-anchor="middle" pointer-events="none" y="0" font-size="10px" fill="#FFFFFF" font-family="sans-serif"> North</text><text text-anchor="middle" pointer-events="none" y="10" font-size="10px" fill="#FFFFFF" font-family="sans-serif"> Carolina</text></g><g class="node" transform="translate(568.4985462205709,161.97413141217177)"><circle class="outline" cx="0" cy="0" r="25" fill="#F16667" stroke="#eb2728" stroke-width="2px"/><text text-anchor="middle" pointer-events="none" font-family="sans-serif" dy="1.5625" font-size="25" fill="#FFFFFF"/><text text-anchor="middle" pointer-events="none" y="5" font-size="10px" fill="#FFFFFF" font-family="sans-serif"> Bill Gates</text></g><g class="node" transform="translate(392.89550129933934,263.1419873347366)"><circle class="outline" cx="0" cy="0" r="25" fill="#A5ABB6" stroke="#9AA1AC" stroke-width="2px"/><text text-anchor="middle" pointer-events="none" font-family="sans-serif" dy="1.5625" font-size="25" fill="#FFFFFF"/><text text-anchor="middle" pointer-events="none" y="5" font-size="10px" fill="#FFFFFF" font-family="sans-serif"> Washing…</text></g><g class="node" transform="translate(371.8753259099419,124.43112066608353)"><circle class="outline" cx="0" cy="0" r="25" fill="#8DCC93" stroke="#5db665" stroke-width="2px"/><text text-anchor="middle" pointer-events="none" font-family="sans-serif" dy="1.5625" font-size="25" fill="#604A0E"/><text text-anchor="middle" pointer-events="none" y="5" font-size="10px" fill="#604A0E" font-family="sans-serif"> Microsoft</text></g><g class="node" transform="translate(436.9366561453479,37.18750343466135)"><circle class="outline" cx="0" cy="0" r="25" fill="#F16667" stroke="#eb2728" stroke-width="2px"/><text text-anchor="middle" pointer-events="none" font-family="sans-serif" dy="1.5625" font-size="25" fill="#FFFFFF"/><text text-anchor="middle" pointer-events="none" y="5" font-size="10px" fill="#FFFFFF" font-family="sans-serif"> Paul Allen</text></g><g class="node" transform="translate(283.3812302774711,-39.99442383362515)"><circle class="outline" cx="0" cy="0" r="25" fill="#F16667" stroke="#eb2728" stroke-width="2px"/><text text-anchor="middle" pointer-events="none" font-family="sans-serif" dy="1.5625" font-size="25" fill="#FFFFFF"/><text text-anchor="middle" pointer-events="none" font-family="sans-serif" dy="1.5625" font-size="25" fill="#FFFFFF"/><text text-anchor="middle" pointer-events="none" y="0" font-size="10px" fill="#FFFFFF" font-family="sans-serif"> Larry</text><text text-anchor="middle" pointer-events="none" y="10" font-size="10px" fill="#FFFFFF" font-family="sans-serif"> Page</text></g><g class="node" transform="translate(355.03407358788866,-135.55587920524215)"><circle class="outline" cx="0" cy="0" r="25" fill="#A5ABB6" stroke="#9AA1AC" stroke-width="2px"/><text text-anchor="middle" pointer-events="none" font-family="sans-serif" dy="1.5625" font-size="25" fill="#FFFFFF"/><text text-anchor="middle" pointer-events="none" y="5" font-size="10px" fill="#FFFFFF" font-family="sans-serif"> Massac…</text></g><g class="node" transform="translate(204.9473616659389,52.08018291115989)"><circle class="outline" cx="0" cy="0" r="25" fill="#8DCC93" stroke="#5db665" stroke-width="2px"/><text text-anchor="middle" pointer-events="none" font-family="sans-serif" dy="1.5625" font-size="25" fill="#604A0E"/><text text-anchor="middle" pointer-events="none" y="5" font-size="10px" fill="#604A0E" font-family="sans-serif"> Google</text></g><g class="node" transform="translate(-239.2429152164516,-5.192778369276098)"><circle class="outline" cx="0" cy="0" r="25" fill="#F16667" stroke="#eb2728" stroke-width="2px"/><text text-anchor="middle" pointer-events="none" font-family="sans-serif" dy="1.5625" font-size="25" fill="#FFFFFF"/><text text-anchor="middle" pointer-events="none" font-family="sans-serif" dy="1.5625" font-size="25" fill="#FFFFFF"/><text text-anchor="middle" pointer-events="none" y="0" font-size="10px" fill="#FFFFFF" font-family="sans-serif"> Steve</text><text text-anchor="middle" pointer-events="none" y="10" font-size="10px" fill="#FFFFFF" font-family="sans-serif"> Jobs</text></g><g class="node" transform="translate(16.672453312273817,-68.0762904532098)"><circle class="outline" cx="0" cy="0" r="25" fill="#8DCC93" stroke="#5db665" stroke-width="2px"/><text text-anchor="middle" pointer-events="none" font-family="sans-serif" dy="1.5625" font-size="25" fill="#604A0E"/><text text-anchor="middle" pointer-events="none" y="5" font-size="10px" fill="#604A0E" font-family="sans-serif"> Apple Inc.</text></g><g class="node" transform="translate(155.51505866334787,-123.52655646502201)"><circle class="outline" cx="0" cy="0" r="25" fill="#F16667" stroke="#eb2728" stroke-width="2px"/><text text-anchor="middle" pointer-events="none" font-family="sans-serif" dy="1.5625" font-size="25" fill="#FFFFFF"/><text text-anchor="middle" pointer-events="none" font-family="sans-serif" dy="1.5625" font-size="25" fill="#FFFFFF"/><text text-anchor="middle" pointer-events="none" y="0" font-size="10px" fill="#FFFFFF" font-family="sans-serif"> Steve</text><text text-anchor="middle" pointer-events="none" y="10" font-size="10px" fill="#FFFFFF" font-family="sans-serif"> Wozniak</text></g><g class="node" transform="translate(52.468113034144814,-188.1948055368692)"><circle class="outline" cx="0" cy="0" r="25" fill="#F16667" stroke="#eb2728" stroke-width="2px"/><text text-anchor="middle" pointer-events="none" font-family="sans-serif" dy="1.5625" font-size="25" fill="#FFFFFF"/><text text-anchor="middle" pointer-events="none" font-family="sans-serif" dy="1.5625" font-size="25" fill="#FFFFFF"/><text text-anchor="middle" pointer-events="none" y="0" font-size="10px" fill="#FFFFFF" font-family="sans-serif"> Ronald</text><text text-anchor="middle" pointer-events="none" y="10" font-size="10px" fill="#FFFFFF" font-family="sans-serif"> Wayne</text></g><g class="node" transform="translate(175.9352908957905,-222.3401756992847)"><circle class="outline" cx="0" cy="0" r="25" fill="#A5ABB6" stroke="#9AA1AC" stroke-width="2px"/><text text-anchor="middle" pointer-events="none" font-family="sans-serif" dy="1.5625" font-size="25" fill="#FFFFFF"/><text text-anchor="middle" pointer-events="none" y="5" font-size="10px" fill="#FFFFFF" font-family="sans-serif"> Ohio</text></g><g class="node" transform="translate(-78.56015808999611,-141.4542817233147)"><circle class="outline" cx="0" cy="0" r="25" fill="#F16667" stroke="#eb2728" stroke-width="2px"/><text text-anchor="middle" pointer-events="none" font-family="sans-serif" dy="1.5625" font-size="25" fill="#FFFFFF"/><text text-anchor="middle" pointer-events="none" y="5" font-size="10px" fill="#FFFFFF" font-family="sans-serif"> Tim Cook</text></g><g class="node" transform="translate(-159.28139999427236,-221.3704951276424)"><circle class="outline" cx="0" cy="0" r="25" fill="#A5ABB6" stroke="#9AA1AC" stroke-width="2px"/><text text-anchor="middle" pointer-events="none" font-family="sans-serif" dy="1.5625" font-size="25" fill="#FFFFFF"/><text text-anchor="middle" pointer-events="none" y="5" font-size="10px" fill="#FFFFFF" font-family="sans-serif"> Alabama</text></g><g class="node" transform="translate(-135.75227987226287,282.01656936623056)"><circle class="outline" cx="0" cy="0" r="25" fill="#F16667" stroke="#eb2728" stroke-width="2px"/><text text-anchor="middle" pointer-events="none" font-family="sans-serif" dy="1.5625" font-size="25" fill="#FFFFFF"/><text text-anchor="middle" pointer-events="none" font-family="sans-serif" dy="1.5625" font-size="25" fill="#FFFFFF"/><text text-anchor="middle" pointer-events="none" y="0" font-size="10px" fill="#FFFFFF" font-family="sans-serif"> Chad</text><text text-anchor="middle" pointer-events="none" y="10" font-size="10px" fill="#FFFFFF" font-family="sans-serif"> Hurley</text></g><g class="node" transform="translate(-221.93317941771147,354.9458616671585)"><circle class="outline" cx="0" cy="0" r="25" fill="#A5ABB6" stroke="#9AA1AC" stroke-width="2px"/><text text-anchor="middle" pointer-events="none" font-family="sans-serif" dy="1.5625" font-size="25" fill="#FFFFFF"/><text text-anchor="middle" pointer-events="none" y="5" font-size="10px" fill="#FFFFFF" font-family="sans-serif"> Pennsyl…</text></g><g class="node" transform="translate(-33.35874267136086,211.8872812372814)"><circle class="outline" cx="0" cy="0" r="25" fill="#8DCC93" stroke="#5db665" stroke-width="2px"/><text text-anchor="middle" pointer-events="none" font-family="sans-serif" dy="1.5625" font-size="25" fill="#604A0E"/><text text-anchor="middle" pointer-events="none" y="5" font-size="10px" fill="#604A0E" font-family="sans-serif"> YouTube</text></g><g class="node" transform="translate(-236.10529376298774,100.75085357472841)"><circle class="outline" cx="0" cy="0" r="25" fill="#F16667" stroke="#eb2728" stroke-width="2px"/><text text-anchor="middle" pointer-events="none" font-family="sans-serif" dy="1.5625" font-size="25" fill="#FFFFFF"/><text text-anchor="middle" pointer-events="none" font-family="sans-serif" dy="1.5625" font-size="25" fill="#FFFFFF"/><text text-anchor="middle" pointer-events="none" y="0" font-size="10px" fill="#FFFFFF" font-family="sans-serif"> Susan</text><text text-anchor="middle" pointer-events="none" y="10" font-size="10px" fill="#FFFFFF" font-family="sans-serif"> Wojcicki</text></g></g></svg>