<svg xmlns="http://www.w3.org/2000/svg" width="600.528564453125" height="459.294921875" viewBox="-169.30177307128906 -188.48036193847656 600.528564453125 459.294921875"><title>Neo4j Graph Visualization</title><desc>Created using Neo4j (http://www.neo4j.com/)</desc><g class="layer relationships"><g class="relationship" transform="translate(348.6773690456358 120.74725643384173) rotate(209.1430106341216)"><path class="outline" fill="#A5ABB6" stroke="none" d="M 25 0.5 L 82.05889037609825 0.5 L 82.05889037609825 -0.5 L 25 -0.5 Z M 120.51982787609825 0.5 L 177.5787182521965 0.5 L 177.5787182521965 3.5 L 184.5787182521965 0 L 177.5787182521965 -3.5 L 177.5787182521965 -0.5 L 120.51982787609825 -0.5 Z"/><text text-anchor="middle" pointer-events="none" font-size="8px" fill="#000000" x="101.28935912609825" y="3" transform="rotate(180 101.28935912609825 0)" font-family="sans-serif">USAborn</text></g><g class="relationship" transform="translate(348.6773690456358 120.74725643384173) rotate(497.26394910814537)"><path class="outline" fill="#A5ABB6" stroke="none" d="M 25 0.5 L 66.2535951112949 0.5 L 66.2535951112949 -0.5 L 25 -0.5 Z M 105.1481263612949 0.5 L 146.4017214725898 0.5 L 146.4017214725898 3.5 L 153.4017214725898 0 L 146.4017214725898 -3.5 L 146.4017214725898 -0.5 L 105.1481263612949 -0.5 Z"/><text text-anchor="middle" pointer-events="none" font-size="8px" fill="#000000" x="85.7008607362949" y="3" transform="rotate(180 85.7008607362949 0)" font-family="sans-serif">CEO_OF</text></g><g class="relationship" transform="translate(402.22679299993746 -31.52735368788032) rotate(528.0182131711273)"><path class="outline" fill="#A5ABB6" stroke="none" d="M 25 0.5 L 98.20268507006078 0.5 L 98.20268507006078 -0.5 L 25 -0.5 Z M 136.6636225700608 0.5 L 209.86630764012156 0.5 L 209.86630764012156 3.5 L 216.86630764012156 0 L 209.86630764012156 -3.5 L 209.86630764012156 -0.5 L 136.6636225700608 -0.5 Z"/><text text-anchor="middle" pointer-events="none" font-size="8px" fill="#000000" x="117.43315382006078" y="3" transform="rotate(180 117.43315382006078 0)" font-family="sans-serif">USAborn</text></g><g class="relationship" transform="translate(72.45785251838977 230.465399052253) rotate(293.74684772918334)"><path class="outline" fill="#A5ABB6" stroke="none" d="M 25 0.5 L 92.95474061877242 0.5 L 92.95474061877242 -0.5 L 25 -0.5 Z M 131.4156781187724 0.5 L 199.37041873754484 0.5 L 199.37041873754484 3.5 L 206.37041873754484 0 L 199.37041873754484 -3.5 L 199.37041873754484 -0.5 L 131.4156781187724 -0.5 Z"/><text text-anchor="middle" pointer-events="none" font-size="8px" fill="#000000" x="112.18520936877242" y="3" font-family="sans-serif">USAborn</text></g><g class="relationship" transform="translate(79.64278721318928 -90.18269390236995) rotate(411.697039277508)"><path class="outline" fill="#A5ABB6" stroke="none" d="M 25 0.5 L 35.290388552613436 0.5 L 35.290388552613436 -0.5 L 25 -0.5 Z M 96.43882605261344 0.5 L 106.72921460522687 0.5 L 106.72921460522687 3.5 L 113.72921460522687 0 L 106.72921460522687 -3.5 L 106.72921460522687 -0.5 L 96.43882605261344 -0.5 Z"/><text text-anchor="middle" pointer-events="none" font-size="8px" fill="#000000" x="65.86460730261344" y="3" font-family="sans-serif">Headquarter_in</text></g><g class="relationship" transform="translate(79.64278721318928 -90.18269390236995) rotate(538.2370088826328)"><path class="outline" fill="#A5ABB6" stroke="none" d="M 25 0.5 L 40.309405198517624 0.5 L 40.309405198517624 -0.5 L 25 -0.5 Z M 103.65706144851762 0.5 L 118.96646664703525 0.5 L 118.96646664703525 3.5 L 125.96646664703525 0 L 118.96646664703525 -3.5 L 118.96646664703525 -0.5 L 103.65706144851762 -0.5 Z"/><text text-anchor="middle" pointer-events="none" font-size="8px" fill="#000000" x="71.98323332351762" y="3" transform="rotate(180 71.98323332351762 0)" font-family="sans-serif">ACQUIRED_BY</text></g><g class="relationship" transform="translate(217.64349057104602 241.81458033376916) rotate(256.8781834900316)"><path class="outline" fill="#A5ABB6" stroke="none" d="M 25 0.5 L 80.48204569404115 0.5 L 80.48204569404115 -0.5 L 25 -0.5 Z M 141.63048319404115 0.5 L 197.1125288880823 0.5 L 197.1125288880823 3.5 L 204.1125288880823 0 L 197.1125288880823 -3.5 L 197.1125288880823 -0.5 L 141.63048319404115 -0.5 Z"/><text text-anchor="middle" pointer-events="none" font-size="8px" fill="#000000" x="111.05626444404115" y="3" transform="rotate(180 111.05626444404115 0)" font-family="sans-serif">Headquarter_in</text></g><g class="relationship" transform="translate(217.64349057104602 241.81458033376916) rotate(228.5709192929445)"><path class="outline" fill="#A5ABB6" stroke="none" d="M 25 0.5 L 183.1267478628141 0.5 L 183.1267478628141 -0.5 L 25 -0.5 Z M 246.4744041128141 0.5 L 404.6011519756282 0.5 L 404.6011519756282 3.5 L 411.6011519756282 0 L 404.6011519756282 -3.5 L 404.6011519756282 -0.5 L 246.4744041128141 -0.5 Z"/><text text-anchor="middle" pointer-events="none" font-size="8px" fill="#000000" x="214.8005759878141" y="3" transform="rotate(180 214.8005759878141 0)" font-family="sans-serif">ACQUIRED_BY</text></g><g class="relationship" transform="translate(127.81724049969182 -159.48036030202707) rotate(438.017671955022)"><path class="outline" fill="#A5ABB6" stroke="none" d="M 25 0.5 L 56.99228360671644 0.5 L 56.99228360671644 -0.5 L 25 -0.5 Z M 118.14072110671644 0.5 L 150.13300471343288 0.5 L 150.13300471343288 3.5 L 157.13300471343288 0 L 150.13300471343288 -3.5 L 150.13300471343288 -0.5 L 118.14072110671644 -0.5 Z"/><text text-anchor="middle" pointer-events="none" font-size="8px" fill="#000000" x="87.56650235671644" y="3" font-family="sans-serif">Headquarter_in</text></g><g class="relationship" transform="translate(127.81724049969182 -159.48036030202707) rotate(384.99892479841407)"><path class="outline" fill="#A5ABB6" stroke="none" d="M 25 0.5 L 117.54950515564693 0.5 L 117.54950515564693 -0.5 L 25 -0.5 Z M 178.22528640564693 0.5 L 270.77479156129385 0.5 L 270.77479156129385 3.5 L 277.77479156129385 0 L 270.77479156129385 -3.5 L 270.77479156129385 -0.5 L 178.22528640564693 -0.5 Z"/><text text-anchor="middle" pointer-events="none" font-size="8px" fill="#000000" x="147.88739578064693" y="3" font-family="sans-serif">FOUNDED_BY</text></g><g class="relationship" transform="translate(127.81724049969182 -159.48036030202707) rotate(519.623036950488)"><path class="outline" fill="#A5ABB6" stroke="none" d="M 25 0.5 L 64.78857973756539 0.5 L 64.78857973756539 -0.5 L 25 -0.5 Z M 140.56982973756539 0.5 L 180.35840947513077 0.5 L 180.35840947513077 3.5 L 187.35840947513077 0 L 180.35840947513077 -3.5 L 180.35840947513077 -0.5 L 140.56982973756539 -0.5 Z"/><text text-anchor="middle" pointer-events="none" font-size="8px" fill="#000000" x="102.67920473756539" y="3" transform="rotate(180 102.67920473756539 0)" font-family="sans-serif">COMPETES_WITH</text></g><g class="relationship" transform="translate(-71.25221808447084 -85.5381887500929) rotate(383.7483479034893)"><path class="outline" fill="#A5ABB6" stroke="none" d="M 25 0.5 L 95.3238547216219 0.5 L 95.3238547216219 -0.5 L 25 -0.5 Z M 156.4722922216219 0.5 L 226.7961469432438 0.5 L 226.7961469432438 3.5 L 233.7961469432438 0 L 226.7961469432438 -3.5 L 226.7961469432438 -0.5 L 156.4722922216219 -0.5 Z"/><text text-anchor="middle" pointer-events="none" font-size="8px" fill="#000000" x="125.8980734716219" y="3" font-family="sans-serif">Headquarter_in</text></g><g class="relationship" transform="translate(-140.30177434316266 141.6006764717993) rotate(338.11085615249795)"><path class="outline" fill="#A5ABB6" stroke="none" d="M 25 0.5 L 130.77617870656624 0.5 L 130.77617870656624 -0.5 L 25 -0.5 Z M 191.92461620656624 0.5 L 297.7007949131325 0.5 L 297.7007949131325 3.5 L 304.7007949131325 0 L 297.7007949131325 -3.5 L 297.7007949131325 -0.5 L 191.92461620656624 -0.5 Z"/><text text-anchor="middle" pointer-events="none" font-size="8px" fill="#000000" x="161.35039745656624" y="3" font-family="sans-serif">Headquarter_in</text></g><g class="relationship" transform="translate(-140.30177434316266 141.6006764717993) rotate(382.6691534322083)"><path class="outline" fill="#A5ABB6" stroke="none" d="M 25 0.5 L 81.44827261843527 0.5 L 81.44827261843527 -0.5 L 25 -0.5 Z M 142.12405386843528 0.5 L 198.57232648687054 0.5 L 198.57232648687054 3.5 L 205.57232648687054 0 L 198.57232648687054 -3.5 L 198.57232648687054 -0.5 L 142.12405386843528 -0.5 Z"/><text text-anchor="middle" pointer-events="none" font-size="8px" fill="#000000" x="111.78616324343527" y="3" font-family="sans-serif">FOUNDED_BY</text></g><g class="relationship" transform="translate(-140.30177434316266 141.6006764717993) rotate(286.9091196939873)"><path class="outline" fill="#A5ABB6" stroke="none" d="M 25 0.5 L 77.31058109519007 0.5 L 77.31058109519007 -0.5 L 25 -0.5 Z M 153.09183109519006 0.5 L 205.40241219038015 0.5 L 205.40241219038015 3.5 L 212.40241219038015 0 L 205.40241219038015 -3.5 L 205.40241219038015 -0.5 L 153.09183109519006 -0.5 Z"/><text text-anchor="middle" pointer-events="none" font-size="8px" fill="#000000" x="115.20120609519007" y="3" font-family="sans-serif">COMPETES_WITH</text></g></g><g class="layer nodes"><g class="node" transform="translate(165.62987126806289,18.68427244060847)"><circle class="outline" cx="0" cy="0" r="25" fill="#A5ABB6" stroke="#9AA1AC" stroke-width="2px"/><text text-anchor="middle" pointer-events="none" font-family="sans-serif" dy="1.5625" font-size="25" fill="#FFFFFF"/><text text-anchor="middle" pointer-events="none" y="5" font-size="10px" fill="#FFFFFF" font-family="sans-serif"> California</text></g><g class="node" transform="translate(348.6773690456358,120.74725643384173)"><circle class="outline" cx="0" cy="0" r="25" fill="#F16667" stroke="#eb2728" stroke-width="2px"/><text text-anchor="middle" pointer-events="none" font-family="sans-serif" dy="1.5625" font-size="25" fill="#FFFFFF"/><text text-anchor="middle" pointer-events="none" font-family="sans-serif" dy="1.5625" font-size="25" fill="#FFFFFF"/><text text-anchor="middle" pointer-events="none" y="0" font-size="10px" fill="#FFFFFF" font-family="sans-serif"> Susan</text><text text-anchor="middle" pointer-events="none" y="10" font-size="10px" fill="#FFFFFF" font-family="sans-serif"> Wojcicki</text></g><g class="node" transform="translate(402.22679299993746,-31.52735368788032)"><circle class="outline" cx="0" cy="0" r="25" fill="#F16667" stroke="#eb2728" stroke-width="2px"/><text text-anchor="middle" pointer-events="none" font-family="sans-serif" dy="1.5625" font-size="25" fill="#FFFFFF"/><text text-anchor="middle" pointer-events="none" font-family="sans-serif" dy="1.5625" font-size="25" fill="#FFFFFF"/><text text-anchor="middle" pointer-events="none" y="0" font-size="10px" fill="#FFFFFF" font-family="sans-serif"> Steve</text><text text-anchor="middle" pointer-events="none" y="10" font-size="10px" fill="#FFFFFF" font-family="sans-serif"> Jobs</text></g><g class="node" transform="translate(72.45785251838977,230.465399052253)"><circle class="outline" cx="0" cy="0" r="25" fill="#F16667" stroke="#eb2728" stroke-width="2px"/><text text-anchor="middle" pointer-events="none" font-family="sans-serif" dy="1.5625" font-size="25" fill="#FFFFFF"/><text text-anchor="middle" pointer-events="none" font-family="sans-serif" dy="1.5625" font-size="25" fill="#FFFFFF"/><text text-anchor="middle" pointer-events="none" y="0" font-size="10px" fill="#FFFFFF" font-family="sans-serif"> Andrew</text><text text-anchor="middle" pointer-events="none" y="10" font-size="10px" fill="#FFFFFF" font-family="sans-serif"> McColl…</text></g><g class="node" transform="translate(79.64278721318928,-90.18269390236995)"><circle class="outline" cx="0" cy="0" r="25" fill="#8DCC93" stroke="#5db665" stroke-width="2px"/><text text-anchor="middle" pointer-events="none" font-family="sans-serif" dy="1.5625" font-size="25" fill="#604A0E"/><text text-anchor="middle" pointer-events="none" y="5" font-size="10px" fill="#604A0E" font-family="sans-serif"> Fitbit</text></g><g class="node" transform="translate(217.64349057104602,241.81458033376916)"><circle class="outline" cx="0" cy="0" r="25" fill="#8DCC93" stroke="#5db665" stroke-width="2px"/><text text-anchor="middle" pointer-events="none" font-family="sans-serif" dy="1.5625" font-size="25" fill="#604A0E"/><text text-anchor="middle" pointer-events="none" y="5" font-size="10px" fill="#604A0E" font-family="sans-serif"> YouTube</text></g><g class="node" transform="translate(127.81724049969182,-159.48036030202707)"><circle class="outline" cx="0" cy="0" r="25" fill="#8DCC93" stroke="#5db665" stroke-width="2px"/><text text-anchor="middle" pointer-events="none" font-family="sans-serif" dy="1.5625" font-size="25" fill="#604A0E"/><text text-anchor="middle" pointer-events="none" y="5" font-size="10px" fill="#604A0E" font-family="sans-serif"> Apple Inc.</text></g><g class="node" transform="translate(-71.25221808447084,-85.5381887500929)"><circle class="outline" cx="0" cy="0" r="25" fill="#8DCC93" stroke="#5db665" stroke-width="2px"/><text text-anchor="middle" pointer-events="none" font-family="sans-serif" dy="1.5625" font-size="25" fill="#604A0E"/><text text-anchor="middle" pointer-events="none" y="5" font-size="10px" fill="#604A0E" font-family="sans-serif"> Google</text></g><g class="node" transform="translate(-140.30177434316266,141.6006764717993)"><circle class="outline" cx="0" cy="0" r="25" fill="#8DCC93" stroke="#5db665" stroke-width="2px"/><text text-anchor="middle" pointer-events="none" font-family="sans-serif" dy="1.5625" font-size="25" fill="#604A0E"/><text text-anchor="middle" pointer-events="none" y="5" font-size="10px" fill="#604A0E" font-family="sans-serif"> Facebook</text></g></g></svg>